<?xml version="1.0" encoding="UTF-8"?>
<svg version="1.1" xmlns="http://www.w3.org/2000/svg" width="1024" height="1024">
<path d="M0 0 C337.92 0 675.84 0 1024 0 C1024 337.92 1024 675.84 1024 1024 C686.08 1024 348.16 1024 0 1024 C0 686.08 0 348.16 0 0 Z " fill="#FCFDFD" transform="translate(0,0)"/>
<path d="M0 0 C0.76441406 0.39703125 1.52882813 0.7940625 2.31640625 1.203125 C21.25891169 11.78417138 33.78139551 28.2334043 40.45703125 48.8671875 C45.59489506 69.04901226 41.77850015 90.73676257 31.3046875 108.5234375 C27.60727531 114.35309966 22.92304825 119.20057334 18 124 C17.34386719 124.66515625 16.68773437 125.3303125 16.01171875 126.015625 C0.41415836 140.84499719 -19.54786876 144.57911216 -40.34765625 144.265625 C-59.70490936 143.60494579 -77.24164627 134.14897475 -90.58203125 120.32421875 C-96.95586492 113.10945949 -101.18596898 105.81062472 -105 97 C-105.33773437 96.23300781 -105.67546875 95.46601562 -106.0234375 94.67578125 C-111.59408824 80.19760483 -112.48644756 59.3802678 -107 45 C-104.9967952 41.8987422 -102.73090158 39.46878379 -100 37 C-99.21625 36.21625 -98.4325 35.4325 -97.625 34.625 C-91.81249501 31.02678263 -85.68285911 30.96293262 -79 31 C-78.90730048 39.40580767 -78.83623586 47.81140161 -78.79275131 56.21759415 C-78.77188031 60.12099518 -78.74357243 64.0240464 -78.69824219 67.92724609 C-78.65476573 71.6944192 -78.63085923 75.46125595 -78.62049103 79.22866058 C-78.61310277 80.66560919 -78.59867494 82.10253947 -78.57707977 83.53934479 C-78.54802797 85.55241425 -78.54636595 87.56582253 -78.54589844 89.57910156 C-78.53701599 90.72493713 -78.52813354 91.87077271 -78.51898193 93.05133057 C-79.09883389 96.60585763 -80.24795646 97.76849591 -83 100 C-77.54147491 100.09998003 -72.08349996 100.17198513 -66.62426758 100.21972656 C-64.77293597 100.23965928 -62.92166579 100.26681568 -61.07055664 100.30175781 C-46.45837725 100.57037857 -34.20702549 100.47613252 -23 90 C-21.515 90.495 -21.515 90.495 -20 91 C-19.88385071 95.0830942 -19.81276543 99.16576377 -19.75 103.25 C-19.71648437 104.40886719 -19.68296875 105.56773437 -19.6484375 106.76171875 C-19.62910156 108.43427734 -19.62910156 108.43427734 -19.609375 110.140625 C-19.5779541 111.68024902 -19.5779541 111.68024902 -19.54589844 113.25097656 C-20.12346044 116.74740032 -21.16823736 117.92122032 -24 120 C-25.32 120 -26.64 120 -28 120 C-28 120.66 -28 121.32 -28 122 C-20.41 122 -12.82 122 -5 122 C-5 121.34 -5 120.68 -5 120 C-5.763125 120.061875 -6.52625 120.12375 -7.3125 120.1875 C-10 120 -10 120 -11.64526367 118.82641602 C-13.49405289 116.3339323 -13.37278146 114.67484431 -13.36328125 111.58984375 C-13.36231445 109.98012695 -13.36231445 109.98012695 -13.36132812 108.33789062 C-13.34521484 107.21576172 -13.32910156 106.09363281 -13.3125 104.9375 C-13.31572266 103.84244141 -13.31894531 102.74738281 -13.32226562 101.61914062 C-13.19693006 82.48837607 -6.2501051 62.89073666 7 48.8125 C9.80277089 46.27248888 12.59507437 44.63152687 16 43 C6.81468334 44.47621161 1.41003987 49.61220861 -4 57 C-5.46657506 59.55119286 -6.77174354 62.16881191 -8.0625 64.8125 C-8.57006836 65.82280273 -8.57006836 65.82280273 -9.08789062 66.85351562 C-11.37434248 71.47506724 -13.25587333 76.14795913 -15 81 C-16.08620237 77.74139288 -15.86986895 77.13634663 -15 74 C-13.74385228 60.81265268 -14.0176475 49.50232039 -22.72265625 38.90234375 C-28.0870309 33.5379691 -34.92405959 31.34251379 -42 29 C-43.485 28.505 -43.485 28.505 -45 28 C-47.90514048 27.87853071 -50.78544469 27.81178869 -53.69140625 27.796875 C-54.55128647 27.79117493 -55.41116669 27.78547485 -56.29710388 27.77960205 C-58.12033866 27.77015337 -59.94359051 27.76361859 -61.7668457 27.75976562 C-64.52782013 27.75012114 -67.28803033 27.71912256 -70.04882812 27.6875 C-82.11276896 27.61444372 -91.59625427 28.44111683 -102 35 C-97.63777521 19.96009066 -82.19397848 7.39878414 -68.82910156 -0.06152344 C-48.55063094 -10.4660137 -20.23881082 -10.68667768 0 0 Z " fill="#040404" transform="translate(217,478)"/>
<path d="M0 0 C1.48831242 0.00667405 2.97660807 0.01863442 4.46484375 0.03515625 C5.22345703 0.03966797 5.98207031 0.04417969 6.76367188 0.04882812 C8.64326246 0.06064945 10.52281274 0.07858547 12.40234375 0.09765625 C16.09249587 8.97741712 19.7341179 17.86425821 23.15625 26.8515625 C24.54364346 30.46574422 25.96561799 34.06538188 27.40234375 37.66015625 C27.65201904 38.28583496 27.90169434 38.91151367 28.15893555 39.55615234 C30.19804193 44.64165848 32.33645679 49.68184098 34.51953125 54.70703125 C35.40234375 57.09765625 35.40234375 57.09765625 35.40234375 60.09765625 C36.06234375 60.09765625 36.72234375 60.09765625 37.40234375 60.09765625 C37.76585937 58.42509766 37.76585937 58.42509766 38.13671875 56.71875 C39.41614294 51.60890933 41.50377891 46.95516211 43.65234375 42.16015625 C46.84504298 34.891127 49.736784 27.61344636 52.29052734 20.09814453 C54.63481062 13.25996425 57.47944229 6.70898099 60.40234375 0.09765625 C66.01234375 0.09765625 71.62234375 0.09765625 77.40234375 0.09765625 C77.99402344 1.6909375 78.58570313 3.28421875 79.1953125 4.92578125 C84.58000918 19.46875541 84.58000918 19.46875541 90.4296875 33.828125 C90.75066406 34.57707031 91.07164062 35.32601562 91.40234375 36.09765625 C91.77488281 36.93941406 92.14742187 37.78117188 92.53125 38.6484375 C93.40234375 41.09765625 93.40234375 41.09765625 93.40234375 45.09765625 C94.06234375 45.09765625 94.72234375 45.09765625 95.40234375 45.09765625 C96.40633899 47.72119143 97.4056882 50.3463342 98.40234375 52.97265625 C98.68851563 53.71902344 98.9746875 54.46539063 99.26953125 55.234375 C101.40234375 60.87109375 101.40234375 60.87109375 101.40234375 63.09765625 C96.45234375 63.09765625 91.50234375 63.09765625 86.40234375 63.09765625 C82.40234375 51.47265625 82.40234375 51.47265625 82.40234375 48.09765625 C73.49234375 48.09765625 64.58234375 48.09765625 55.40234375 48.09765625 C54.74234375 51.06765625 54.08234375 54.03765625 53.40234375 57.09765625 C52.41234375 59.07765625 51.42234375 61.05765625 50.40234375 63.09765625 C40.83234375 63.09765625 31.26234375 63.09765625 21.40234375 63.09765625 C17.40234375 51.09765625 17.40234375 51.09765625 17.40234375 49.09765625 C8.49234375 49.09765625 -0.41765625 49.09765625 -9.59765625 49.09765625 C-9.92765625 51.07765625 -10.25765625 53.05765625 -10.59765625 55.09765625 C-11.47763314 57.82421676 -12.54027895 60.43122654 -13.59765625 63.09765625 C-18.21765625 63.09765625 -22.83765625 63.09765625 -27.59765625 63.09765625 C-27.05741457 56.88487694 -25.01645682 51.8101427 -22.59765625 46.09765625 C-21.94909195 44.45289718 -21.30323588 42.80706749 -20.66015625 41.16015625 C-19.27646769 37.6793147 -17.76261638 34.29535327 -16.16015625 30.91015625 C-13.84533413 25.90417591 -12.09901791 20.77583219 -10.41137695 15.53588867 C-5.41149245 0.14689176 -5.41149245 0.14689176 0 0 Z " fill="#0E153C" transform="translate(750.59765625,493.90234375)"/>
<path d="M0 0 C5.5275 -0.0825 11.055 -0.165 16.75 -0.25 C18.46799805 -0.28641602 20.18599609 -0.32283203 21.95605469 -0.36035156 C33.05713335 -0.49736004 44.17335458 0.20230919 52.6015625 8.36328125 C59.69115753 16.66087991 59.67033738 26.57317948 59.17919922 37.03613281 C58.47358178 44.76908471 54.96697145 52.00249073 49 57 C46.42593018 58.6081615 43.80826034 59.85829878 41 61 C39.95851807 61.51445679 39.95851807 61.51445679 38.89599609 62.03930664 C35.12251702 63.29108882 31.56433052 63.2487723 27.63671875 63.1953125 C26.93405884 63.19329834 26.23139893 63.19128418 25.50744629 63.18920898 C22.90073043 63.17880181 20.29410816 63.15087943 17.6875 63.125 C8.9321875 63.063125 8.9321875 63.063125 0 63 C0 42.21 0 21.42 0 0 Z " fill="#0F163E" transform="translate(281,494)"/>
<path d="M0 0 C32.78205128 0 32.78205128 0 42.0546875 8.8203125 C44.85305432 11.95583195 46.55858519 15.07393646 48 19 C48.4125 20.11375 48.825 21.2275 49.25 22.375 C50.20031611 26.96819454 50.1691695 31.32904216 50 36 C47.74590093 33.74590093 46.78445405 31.6668413 45.375 28.8125 C40.8583029 20.47733918 35.29933837 15.92588127 26.41015625 12.7109375 C23.25406112 11.77996616 20.27588824 11.28485985 17 11 C17 11.66 17 12.32 17 13 C17.99 13.020625 18.98 13.04125 20 13.0625 C25.28358836 13.82034803 28.38304497 17.33116242 32 21 C32.5259375 21.50402344 33.051875 22.00804687 33.59375 22.52734375 C38.87474529 28.04710745 41.77389444 35.17362716 45 42 C45.39703125 42.74378906 45.7940625 43.48757813 46.203125 44.25390625 C47.54410639 47.19223311 46.93976805 48.94575384 46 52 C41.56750896 59.57093268 36.04510682 63.78195727 28 67 C18.76 67 9.52 67 0 67 C0 44.89 0 22.78 0 0 Z " fill="#030303" transform="translate(146,509)"/>
<path d="M0 0 C5.94 0 11.88 0 18 0 C19.11375 1.98 20.2275 3.96 21.375 6 C24.79963494 12.03722825 28.40227477 17.94458234 32.14599609 23.7890625 C36.35092119 30.40711121 40.09057173 37.15850053 44 44 C44.33 29.48 44.66 14.96 45 0 C49.62 0 54.24 0 59 0 C59 21.12 59 42.24 59 64 C53.39 64 47.78 64 42 64 C38.87223772 60.17199243 37.14166135 57.59275464 35.15673828 53.28710938 C32.74114231 48.51097956 29.66970206 44.1034913 26.75 39.625 C20.23896225 29.49903687 20.23896225 29.49903687 17.703125 24.8984375 C16.31234097 21.92925946 16.31234097 21.92925946 14 21 C14 35.19 14 49.38 14 64 C9.38 64 4.76 64 0 64 C0 42.88 0 21.76 0 0 Z " fill="#161C42" transform="translate(858,493)"/>
<path d="M0 0 C0.84331879 -0.00902847 1.68663757 -0.01805695 2.55551147 -0.02735901 C4.33205665 -0.04178604 6.10865404 -0.05072933 7.88525391 -0.05444336 C10.55856494 -0.066285 13.22952199 -0.11549668 15.90234375 -0.16601562 C28.79834692 -0.2876209 40.95167434 1.07735685 51.28515625 9.70703125 C57.48247394 15.86101106 62.06867228 22.63151632 62.25390625 31.54296875 C62.23417921 33.40257145 62.19871633 35.26206621 62.1484375 37.12109375 C62.12813477 38.53841797 62.12813477 38.53841797 62.10742188 39.984375 C62.08138425 41.72765618 62.04915558 43.4708646 62.00854492 45.21386719 C61.97061459 46.93259746 61.9609375 48.65194499 61.9609375 50.37109375 C62.25226563 49.54867187 62.54359375 48.72625 62.84375 47.87890625 C67.18045748 36.06887897 72.65055206 23.69615937 84.10546875 17.14453125 C88.06951111 15.52253304 91.71298025 15.05249696 95.9609375 15.37109375 C95.38988281 15.64824219 94.81882812 15.92539062 94.23046875 16.2109375 C78.12973214 24.44143453 70.82731086 39.67089516 65.43359375 56.31640625 C63.76161908 63.58465977 63.77769552 70.75334411 63.7734375 78.18359375 C63.76119141 79.32763672 63.74894531 80.47167969 63.73632812 81.65039062 C63.73439453 82.74029297 63.73246094 83.83019531 63.73046875 84.953125 C63.72635986 85.94546143 63.72225098 86.93779785 63.71801758 87.96020508 C63.72263208 90.55455877 63.72263208 90.55455877 65.9609375 92.37109375 C68.53155061 93.01877168 68.53155061 93.01877168 70.9609375 93.37109375 C70.9609375 94.03109375 70.9609375 94.69109375 70.9609375 95.37109375 C63.3709375 95.37109375 55.7809375 95.37109375 47.9609375 95.37109375 C47.9609375 94.71109375 47.9609375 94.05109375 47.9609375 93.37109375 C48.9303125 93.08234375 49.8996875 92.79359375 50.8984375 92.49609375 C54.06757953 91.72894693 54.06757953 91.72894693 54.9609375 89.37109375 C55.0458525 87.48470255 55.0681305 85.5953086 55.05859375 83.70703125 C55.05537109 82.58554687 55.05214844 81.4640625 55.04882812 80.30859375 C55.04044922 79.13296875 55.03207031 77.95734375 55.0234375 76.74609375 C55.01892578 75.56273437 55.01441406 74.379375 55.00976562 73.16015625 C54.99795217 70.23041868 54.98148008 67.30078103 54.9609375 64.37109375 C52.4911078 65.46879584 50.65015401 66.62676308 48.54760742 68.35644531 C37.87580282 76.66826519 22.85090393 74.83786288 10.1484375 74.62109375 C8.08790807 74.60098944 6.0273596 74.58274566 3.96679688 74.56640625 C-1.03563388 74.52274225 -6.03713341 74.45393352 -11.0390625 74.37109375 C-10.141875 73.96890625 -10.141875 73.96890625 -9.2265625 73.55859375 C-6.92675587 72.31012729 -5.57151969 71.4941872 -4.0390625 69.37109375 C-3.56399617 66.44454393 -3.56399617 66.44454393 -3.60668945 63.0637207 C-3.58689529 61.76259842 -3.56710114 60.46147614 -3.54670715 59.1209259 C-3.53993733 57.7004104 -3.53349047 56.27989333 -3.52734375 54.859375 C-3.51049921 53.40633114 -3.49234926 51.95330187 -3.47294617 50.50028992 C-3.42541508 46.67809611 -3.39562615 42.85596145 -3.36950684 39.03356934 C-3.33971677 35.13228674 -3.29318118 31.23120804 -3.24804688 27.33007812 C-3.16197854 19.67718443 -3.09464931 12.02427597 -3.0390625 4.37109375 C-5.61429626 4.80399942 -8.18617438 5.24974129 -10.7578125 5.703125 C-11.48323242 5.82369263 -12.20865234 5.94426025 -12.95605469 6.06848145 C-18.42611588 7.04817065 -21.89850731 8.5410802 -26.0390625 12.37109375 C-26.6990625 12.04109375 -27.3590625 11.71109375 -28.0390625 11.37109375 C-26.80982935 7.68339431 -25.74991523 7.26261042 -22.4765625 5.30859375 C-21.65027344 4.80199219 -20.82398437 4.29539062 -19.97265625 3.7734375 C-13.46491862 0.66254827 -7.09715913 0.04819288 0 0 Z M4.9609375 4.37109375 C4.9609375 26.48109375 4.9609375 48.59109375 4.9609375 71.37109375 C27.80439318 73.37255919 27.80439318 73.37255919 45.3984375 64.2734375 C45.9140625 63.62503906 46.4296875 62.97664062 46.9609375 62.30859375 C47.4971875 61.65761719 48.0334375 61.00664063 48.5859375 60.3359375 C51.25140619 56.58782889 51.25140619 56.58782889 51.8359375 52.18359375 C50.55500556 48.06631253 48.83211231 44.25182608 46.9609375 40.37109375 C46.54972656 39.48808594 46.13851562 38.60507812 45.71484375 37.6953125 C41.7246192 29.70355965 35.61607064 20.75709772 26.9609375 17.37109375 C24.29384681 17.20358961 24.29384681 17.20358961 21.9609375 17.37109375 C21.9609375 16.71109375 21.9609375 16.05109375 21.9609375 15.37109375 C32.194241 16.82988382 40.77948329 19.86940406 47.421875 28.1015625 C50.04829184 31.97452743 52.06270848 36.10226536 53.9609375 40.37109375 C54.2909375 40.37109375 54.6209375 40.37109375 54.9609375 40.37109375 C55.76296957 30.30113551 53.78049331 21.24680141 47.2109375 13.37109375 C42.40142649 8.41801525 37.59103049 6.028617 30.9609375 4.37109375 C22.3809375 4.37109375 13.8009375 4.37109375 4.9609375 4.37109375 Z " fill="#EFEEEC" transform="translate(141.0390625,504.62890625)"/>
<path d="M0 0 C5.61 0 11.22 0 17 0 C18.36125 3.6815625 18.36125 3.6815625 19.75 7.4375 C21.7072237 12.68968288 23.74787888 17.86113657 26.078125 22.9609375 C28.46906675 28.24937645 30.54365515 33.65098145 32.4453125 39.1328125 C32.70199707 39.87208984 32.95868164 40.61136719 33.22314453 41.37304688 C33.72693223 42.83342956 34.2256242 44.29558397 34.71826172 45.75976562 C36.2247286 50.14109905 38.01370489 54.18013309 40.23046875 58.25146484 C41 60 41 60 41 63 C36.05 63 31.1 63 26 63 C22 51.25 22 51.25 22 49 C8.635 49.495 8.635 49.495 -5 50 C-6.32 53.96 -7.64 57.92 -9 62 C-10 63 -10 63 -13.16015625 63.09765625 C-14.44792969 63.08605469 -15.73570312 63.07445312 -17.0625 63.0625 C-18.35285156 63.05347656 -19.64320313 63.04445313 -20.97265625 63.03515625 C-21.97167969 63.02355469 -22.97070312 63.01195312 -24 63 C-21.66809127 55.7773431 -19.04808907 48.68300966 -16.34863281 41.59008789 C-15.63066094 39.70238383 -14.9167059 37.81319573 -14.203125 35.92382812 C-11.61352433 29.10287718 -8.92638265 22.33807028 -6.09375 15.61450195 C-4.72737822 12.3483244 -3.44637007 9.0590299 -2.1875 5.75 C-1.465625 3.8525 -0.74375 1.955 0 0 Z " fill="#0E153E" transform="translate(601,494)"/>
<path d="M0 0 C5.61 0 11.22 0 17 0 C18.47547549 3.74941321 19.95063135 7.4989501 21.42504883 11.2487793 C22.16649288 13.13408421 22.90843451 15.01919342 23.65039062 16.90429688 C32.6821401 39.87767306 32.6821401 39.87767306 36.1875 50 C37.70751846 54.37352571 39.27940974 58.69852436 41 63 C36.05 63 31.1 63 26 63 C24.35 58.38 22.7 53.76 21 49 C8.13 48.505 8.13 48.505 -5 48 C-5.99 51.63 -6.98 55.26 -8 59 C-8.66 60.32 -9.32 61.64 -10 63 C-14.62 63 -19.24 63 -24 63 C-21.77279629 55.07084863 -18.97029773 47.43275 -15.97631836 39.77001953 C-15.19494504 37.7690654 -14.42026109 35.76562096 -13.64648438 33.76171875 C-10.6755147 26.10024599 -7.55875182 18.5190019 -4.27807617 10.98486328 C-2.7268377 7.36204731 -1.33463736 3.707326 0 0 Z " fill="#0D163D" transform="translate(366,494)"/>
<path d="M0 0 C4.95 0 9.9 0 15 0 C15.61875 1.89105469 15.61875 1.89105469 16.25 3.8203125 C19.79262037 14.57995825 23.48749907 25.26597812 27.421875 35.88916016 C27.74414062 36.76233887 28.06640625 37.63551758 28.3984375 38.53515625 C28.68380371 39.302229 28.96916992 40.06930176 29.26318359 40.85961914 C29.9623914 42.89075062 30.51403793 44.90870169 31 47 C33.26551607 41.49146092 35.38835542 35.98065847 37.23046875 30.31640625 C38.35284548 26.93788137 39.59105862 23.60400938 40.81640625 20.26171875 C43.26074865 13.52565966 45.62254499 6.75989709 48 0 C52.95 0 57.9 0 63 0 C61.18895007 6.53990254 58.96330573 12.76459479 56.40380859 19.04931641 C54.53077603 23.65342521 52.73593489 28.27998841 51 32.9375 C50.75564209 33.59290771 50.51128418 34.24831543 50.25952148 34.92358398 C49.76174579 36.26073333 49.26443468 37.59805572 48.76757812 38.93554688 C47.43421599 42.52171424 46.09209231 46.10459285 44.75 49.6875 C44.50378906 50.3467749 44.25757813 51.0060498 44.00390625 51.68530273 C40.22864271 61.77135729 40.22864271 61.77135729 39 63 C36.30345146 63.07319621 33.63308542 63.09242537 30.9375 63.0625 C29.79958008 63.05573242 29.79958008 63.05573242 28.63867188 63.04882812 C26.75908129 63.0370068 24.87953101 63.01907078 23 63 C22.62488281 61.98421875 22.24976563 60.9684375 21.86328125 59.921875 C21.34647785 58.53120403 20.82954356 57.1405817 20.3125 55.75 C20.06822266 55.08742188 19.82394531 54.42484375 19.57226562 53.7421875 C18.02892872 49.60057454 16.38240622 45.52045849 14.65234375 41.453125 C11.83859633 34.74599193 9.38962346 27.92907627 6.97802734 21.06982422 C6.24067577 18.97349068 5.49765436 16.87922793 4.75390625 14.78515625 C1.14447662 4.57790649 1.14447662 4.57790649 0 0 Z " fill="#10163C" transform="translate(516,494)"/>
<path d="M0 0 C5.20955163 -0.72410756 9.81112662 -1.0248964 15 0 C18.56294644 3.41825826 20.09627052 7.50163139 22 12 C23.26273085 14.4445589 24.60271257 16.84423959 25.9375 19.25 C26.96046489 21.16552986 27.98210203 23.08177282 29 25 C33.09927602 20.36391403 35.83405272 15.10228399 38.75 9.6875 C39.25660156 8.75615234 39.76320313 7.82480469 40.28515625 6.86523438 C41.52782094 4.57920027 42.76450882 2.289919 44 0 C49.28 0 54.56 0 60 0 C58.57151633 3.57120918 57.65854602 5.72069302 55.5625 8.6875 C51.8118396 14.1699468 48.3960981 19.84618814 44.95922852 25.52807617 C44.50604248 26.27549072 44.05285645 27.02290527 43.5859375 27.79296875 C43.14894531 28.52547852 42.71195313 29.25798828 42.26171875 30.01269531 C41 32 41 32 38.7109375 34.74609375 C36.00064469 39.9006004 36.32124085 45.13687329 36.25 50.875 C36.20552734 52.62296875 36.20552734 52.62296875 36.16015625 54.40625 C36.08972474 57.27046491 36.04256708 60.13523549 36 63 C31.71 63 27.42 63 23 63 C22.99613281 60.44958984 22.99613281 60.44958984 22.9921875 57.84765625 C22.95464817 55.58591171 22.91550039 53.32419346 22.875 51.0625 C22.87757813 49.94552734 22.88015625 48.82855469 22.8828125 47.67773438 C22.69386924 39.62402808 20.94299263 35.24968188 16 29 C15.20880423 27.76754828 14.4376731 26.52188293 13.69140625 25.26171875 C13.34005615 24.67479248 12.98870605 24.08786621 12.62670898 23.4831543 C12.27552002 22.89058838 11.92433105 22.29802246 11.5625 21.6875 C11.18488525 21.05303955 10.80727051 20.4185791 10.41821289 19.76489258 C9.65031388 18.47288996 8.88361205 17.18017499 8.11816406 15.88671875 C7.03977346 14.06711121 5.95408262 12.25203639 4.8671875 10.4375 C4.23039063 9.365 3.59359375 8.2925 2.9375 7.1875 C2.36902344 6.23230469 1.80054688 5.27710938 1.21484375 4.29296875 C0 2 0 2 0 0 Z " fill="#0C133C" transform="translate(669,494)"/>
<path d="M0 0 C18.15 0 36.3 0 55 0 C55 3.63 55 7.26 55 11 C48.07 11 41.14 11 34 11 C34 28.16 34 45.32 34 63 C29.38 63 24.76 63 20 63 C20 46.17 20 29.34 20 12 C13.4 12 6.8 12 0 12 C0 8.04 0 4.08 0 0 Z " fill="#11173E" transform="translate(402,494)"/>
<path d="M0 0 C18.15 0 36.3 0 55 0 C55 3.63 55 7.26 55 11 C48.07 11 41.14 11 34 11 C34 28.16 34 45.32 34 63 C29.71 63 25.42 63 21 63 C21 45.84 21 28.68 21 11 C14.07 11 7.14 11 0 11 C0 7.37 0 3.74 0 0 Z " fill="#0C133A" transform="translate(459,494)"/>
<path d="M0 0 C21.79487179 0 21.79487179 0 28.5625 6.4375 C31.22696898 11.18720558 31.2097416 16.06702148 31.3125 21.4375 C31.34988281 22.71496094 31.38726562 23.99242187 31.42578125 25.30859375 C30.82270868 30.53706692 28.1147157 34.70822744 24 38 C19 40 19 40 0 40 C0 26.8 0 13.6 0 0 Z " fill="#F9F9FA" transform="translate(295,505)"/>
<path d="M0 0 C1.26085419 0.0001133 1.26085419 0.0001133 2.54718018 0.00022888 C3.89426056 0.00797081 3.89426056 0.00797081 5.26855469 0.01586914 C6.19512878 0.01728409 7.12170288 0.01869904 8.07635498 0.02015686 C11.03107961 0.02574715 13.98572802 0.03829789 16.94042969 0.05102539 C18.94563693 0.05604165 20.95084535 0.06060433 22.95605469 0.06469727 C27.86754232 0.07571341 32.77897309 0.09297139 37.69042969 0.11352539 C37.69042969 0.77352539 37.69042969 1.43352539 37.69042969 2.11352539 C29.77042969 2.44352539 21.85042969 2.77352539 13.69042969 3.11352539 C13.36042969 25.88352539 13.03042969 48.65352539 12.69042969 72.11352539 C10.05042969 72.11352539 7.41042969 72.11352539 4.69042969 72.11352539 C5.02042969 49.34352539 5.35042969 26.57352539 5.69042969 3.11352539 C-7.77149321 4.79039914 -7.77149321 4.79039914 -17.30957031 11.11352539 C-17.96957031 10.78352539 -18.62957031 10.45352539 -19.30957031 10.11352539 C-18.05795259 6.35867223 -16.85382434 5.94458411 -13.49707031 3.98852539 C-12.18802734 3.2112207 -12.18802734 3.2112207 -10.85253906 2.41821289 C-7.18923863 0.53873156 -4.09486339 -0.01233393 0 0 Z " fill="#F1F1F2" transform="translate(132.3095703125,505.886474609375)"/>
<path d="M0 0 C16.65 0 16.65 0 22.8125 4.25 C24.80447147 7.1855369 24.41456561 9.56502783 24 13 C22.20437595 15.75329021 20.94745078 17.52627461 18 19 C19.480544 23.2078619 21.60377695 26.58112344 24.125 30.25 C28 35.90391459 28 35.90391459 28 37 C25.375 37.625 25.375 37.625 22 37 C19.59054277 33.89959548 17.84501294 30.4574168 16 27 C14.25055924 23.95246665 14.25055924 23.95246665 12 22 C9.69 21.67 7.38 21.34 5 21 C5 26.28 5 31.56 5 37 C3.35 37 1.7 37 0 37 C0 24.79 0 12.58 0 0 Z " fill="#3479DD" transform="translate(319,571)"/>
<path d="M0 0 C1.98 0 3.96 0 6 0 C6.32274902 0.70608398 6.64549805 1.41216797 6.97802734 2.13964844 C8.44295985 5.34343106 9.9089681 8.54672031 11.375 11.75 C11.88289063 12.86117187 12.39078125 13.97234375 12.9140625 15.1171875 C13.40390625 16.18710937 13.89375 17.25703125 14.3984375 18.359375 C14.84880371 19.34389648 15.29916992 20.32841797 15.76318359 21.34277344 C16.80578299 23.58273629 17.88057124 25.79769525 19 28 C19.35827881 27.18732666 19.71655762 26.37465332 20.08569336 25.53735352 C21.41261731 22.53050638 22.74160616 19.52459013 24.07202148 16.51928711 C24.64805204 15.21692184 25.22325036 13.91418815 25.79760742 12.61108398 C26.62201335 10.74105536 27.44937637 8.87236024 28.27734375 7.00390625 C28.77484131 5.87799072 29.27233887 4.7520752 29.78491211 3.59204102 C31 1 31 1 32 0 C33.98 0 35.96 0 38 0 C38 12.21 38 24.42 38 37 C36.35 37 34.7 37 33 37 C32.67 28.09 32.34 19.18 32 10 C28.04 18.91 24.08 27.82 20 37 C18.68 36.67 17.36 36.34 16 36 C14.6875 32.875 14.6875 32.875 13.98828125 30.73046875 C12.42722257 26.41750425 10.39615859 22.33054282 8.42456055 18.19287109 C7.13914149 15.4827299 5.94973262 12.84919787 5 10 C4.67 18.91 4.34 27.82 4 37 C2.68 37 1.36 37 0 37 C0 24.79 0 12.58 0 0 Z " fill="#3276D8" transform="translate(356,571)"/>
<path d="M0 0 C16.11111111 0 16.11111111 0 21 3 C23.48386059 6.72579089 23.3804212 8.58711402 23 13 C21.8125 15.875 21.8125 15.875 20 18 C17.3125 18.8125 17.3125 18.8125 15 19 C15 19.66 15 20.32 15 21 C15.58394531 21.21785156 16.16789062 21.43570313 16.76953125 21.66015625 C19.72560575 23.43587175 20.89477465 25.5092523 22.6875 28.4375 C23.28949219 29.40558594 23.89148438 30.37367188 24.51171875 31.37109375 C26 34 26 34 27 37 C25.02 37 23.04 37 21 37 C20.61328125 36.25234375 20.2265625 35.5046875 19.828125 34.734375 C19.30734375 33.74953125 18.7865625 32.7646875 18.25 31.75 C17.73953125 30.77546875 17.2290625 29.8009375 16.703125 28.796875 C14.9754948 25.95975752 13.64242058 24.01415275 11 22 C8.69 21.67 6.38 21.34 4 21 C4 26.28 4 31.56 4 37 C2.68 37 1.36 37 0 37 C0 24.79 0 12.58 0 0 Z " fill="#0C5BD5" transform="translate(457,571)"/>
<path d="M0 0 C15 0 15 0 19 1 C19 1.66 19 2.32 19 3 C19.99 3.33 20.98 3.66 22 4 C23.72732636 7.45465272 23.35415682 11.21576878 23 15 C21.65193976 18.44504283 20.4487336 19.68260306 17.4375 21.8125 C12.76854293 23.42541244 8.92851899 23.19980482 4 23 C4 27.62 4 32.24 4 37 C2.68 37 1.36 37 0 37 C0 24.79 0 12.58 0 0 Z " fill="#135ACF" transform="translate(493,571)"/>
<path d="M0 0 C6.6 0 13.2 0 20 0 C20 1.32 20 2.64 20 4 C15.05 4 10.1 4 5 4 C5 7.96 5 11.92 5 16 C9.62 16 14.24 16 19 16 C19 17.32 19 18.64 19 20 C14.38 20 9.76 20 5 20 C5 24.29 5 28.58 5 33 C9.95 33 14.9 33 20 33 C20 34.32 20 35.64 20 37 C13.4 37 6.8 37 0 37 C0 24.79 0 12.58 0 0 Z " fill="#3D7CD6" transform="translate(426,571)"/>
<path d="M0 0 C1.15371094 -0.00257813 2.30742187 -0.00515625 3.49609375 -0.0078125 C6.5625 0.125 6.5625 0.125 9.5625 1.125 C9.5625 2.445 9.5625 3.765 9.5625 5.125 C8.68207031 5.10179687 7.80164063 5.07859375 6.89453125 5.0546875 C5.73308594 5.03664063 4.57164062 5.01859375 3.375 5 C2.22644531 4.97679687 1.07789063 4.95359375 -0.10546875 4.9296875 C-4.83566752 5.20695589 -7.30883741 6.02532703 -10.71875 9.34765625 C-13.76462848 14.26951897 -13.15335319 19.53151969 -12.4375 25.125 C-11.17438714 28.36541571 -9.62459333 30.53145333 -6.4375 32.125 C-3.71989892 32.19681821 -1.02890612 32.21799506 1.6875 32.1875 C2.81865234 32.18073242 2.81865234 32.18073242 3.97265625 32.17382812 C5.83597127 32.16203499 7.69924555 32.14409942 9.5625 32.125 C9.5625 33.445 9.5625 34.765 9.5625 36.125 C3.53306792 38.17757262 -2.48956001 39.62465918 -8.6484375 37.28515625 C-12.97287105 34.89787602 -15.8669 32.13899821 -17.8125 27.5703125 C-19.44432741 21.18578774 -19.60074146 14.63044314 -16.8125 8.625 C-11.49329454 3.02583635 -7.92086679 -0.0176608 0 0 Z " fill="#3579DD" transform="translate(299.4375,570.875)"/>
<path d="M0 0 C1.98 0 3.96 0 6 0 C7.6886535 3.51069266 9.34682383 7.0349795 11 10.5625 C11.71542969 12.0484668 11.71542969 12.0484668 12.4453125 13.56445312 C14.95807131 18.96688456 16.67111722 23.01866779 16 29 C13.35008872 27.99867653 12.21338239 27.3929972 10.83984375 24.86328125 C10.54207031 24.02152344 10.24429687 23.17976562 9.9375 22.3125 C8.41617649 18.11416946 6.77130834 14.1330528 5 10 C4.67 18.91 4.34 27.82 4 37 C2.68 37 1.36 37 0 37 C0 24.79 0 12.58 0 0 Z " fill="#266DD7" transform="translate(356,571)"/>
<path d="M0 0 C2.89740622 -0.13539281 5.78845621 -0.23426829 8.6875 -0.3125 C9.50412109 -0.35439453 10.32074219 -0.39628906 11.16210938 -0.43945312 C15.57336718 -0.52874984 17.41575638 -0.44117884 21.046875 2.30078125 C23 5 23 5 23.5625 8.5 C22.91761403 12.51262381 21.93925354 14.22870381 19 17 C18.01 17 17.02 17 16 17 C16.144375 16.29875 16.28875 15.5975 16.4375 14.875 C17.01478375 11.92443859 17.51695141 8.96729849 18 6 C13.3935408 3.77106813 9.03866777 3.45122398 4 3 C4.33 8.28 4.66 13.56 5 19 C4.34 19 3.68 19 3 19 C3 24.28 3 29.56 3 35 C2.34 35 1.68 35 1 35 C0.09710143 23.31068812 -0.11465457 11.72024504 0 0 Z " fill="#185ED5" transform="translate(320,572)"/>
<path d="M0 0 C0.99 0.33 1.98 0.66 3 1 C3.80859375 2.96875 3.80859375 2.96875 4.4375 5.5 C5.63781595 9.95010756 7.22294876 13.94698415 9.23046875 18.08984375 C10 20 10 20 10 23 C4.39 23 -1.22 23 -7 23 C-6.35566405 19.13398431 -5.86949609 16.23477641 -4.58984375 12.6953125 C-4.18862305 11.57382812 -4.18862305 11.57382812 -3.77929688 10.4296875 C-3.50150391 9.66914062 -3.22371094 8.90859375 -2.9375 8.125 C-2.65583984 7.34125 -2.37417969 6.5575 -2.08398438 5.75 C-1.39386218 3.83169424 -0.69755684 1.91561481 0 0 Z " fill="#E8E9EC" transform="translate(753,508)"/>
<path d="M0 0 C0.66 0 1.32 0 2 0 C3.3417678 3.26743656 4.67194359 6.53946908 6 9.8125 C6.3815625 10.74126953 6.763125 11.67003906 7.15625 12.62695312 C7.5171875 13.51962891 7.878125 14.41230469 8.25 15.33203125 C8.58515625 16.15421143 8.9203125 16.9763916 9.265625 17.82348633 C10 20 10 20 10 23 C4.39 23 -1.22 23 -7 23 C-5.62982617 16.03494972 -3.51097 9.63070001 -1 3 C-0.67 2.01 -0.34 1.02 0 0 Z " fill="#E8E9EB" transform="translate(608,508)"/>
<path d="M0 0 C0.66 0 1.32 0 2 0 C2.24234375 0.76183594 2.4846875 1.52367187 2.734375 2.30859375 C4.62201727 8.12398398 6.63583546 13.73525446 9.265625 19.2578125 C10 21 10 21 10 23 C4.39 23 -1.22 23 -7 23 C-6.19367292 18.1620375 -5.08052125 13.84705895 -3.5 9.25 C-3.16162109 8.24259766 -3.16162109 8.24259766 -2.81640625 7.21484375 C-1.15576475 2.3115295 -1.15576475 2.3115295 0 0 Z " fill="#EAECEE" transform="translate(373,508)"/>
<path d="M0 0 C0.66 0 1.32 0 2 0 C3.15268129 2.89315371 4.29590743 5.78995487 5.4375 8.6875 C5.76298828 9.50412109 6.08847656 10.32074219 6.42382812 11.16210938 C6.73642578 11.95810547 7.04902344 12.75410156 7.37109375 13.57421875 C7.65911865 14.30213623 7.94714355 15.03005371 8.24389648 15.7800293 C9 18 9 18 10 23 C4.72 23 -0.56 23 -6 23 C-6 15.125 -6 15.125 -4.6875 11.81640625 C-4.41679688 11.11708984 -4.14609375 10.41777344 -3.8671875 9.69726562 C-3.58101562 8.99279297 -3.29484375 8.28832031 -3 7.5625 C-2.71382812 6.83095703 -2.42765625 6.09941406 -2.1328125 5.34570312 C-1.43239577 3.55964046 -0.71766189 1.77920344 0 0 Z " fill="#F6F8F7" transform="translate(818,508)"/>
<path d="M0 0 C1.5675 -0.061875 3.135 -0.12375 4.75 -0.1875 C6.07257813 -0.23970703 6.07257813 -0.23970703 7.421875 -0.29296875 C10.52351115 0.0594899 11.82221815 0.78225885 14 3 C14.54889545 7.32255167 14.71716742 9.69605923 12.625 13.5 C8.46285285 15.8783698 4.74014469 15.2494813 0 15 C0 10.05 0 5.1 0 0 Z " fill="#F2F6F9" transform="translate(497,575)"/>
<path d="M0 0 C0.33 0 0.66 0 1 0 C1 22.11 1 44.22 1 67 C17.15614597 67.10532103 17.15614597 67.10532103 33 65 C32.67 65.66 32.34 66.32 32 67 C32.99 67.99 32.99 67.99 34 69 C28.99778603 70.3226348 24.01854038 70.12593478 18.88671875 70.09765625 C17.91716751 70.0962413 16.94761627 70.09482635 15.94868469 70.09336853 C12.86159133 70.08778513 9.77457133 70.07523564 6.6875 70.0625 C4.59049584 70.05748286 2.49349054 70.05292032 0.39648438 70.04882812 C-4.73570521 70.03782112 -9.86784018 70.02056788 -15 70 C-14.38640625 69.70351563 -13.7728125 69.40703125 -13.140625 69.1015625 C-10.88567831 67.94117022 -8.99071996 66.56413711 -7 65 C-7 65.99 -7 66.98 -7 68 C-4.69 68.33 -2.38 68.66 0 69 C0 46.23 0 23.46 0 0 Z " fill="#C5C5CA" transform="translate(145,509)"/>
<path d="M0 0 C8.02217295 -0.35920177 8.02217295 -0.35920177 12.0625 1.125 C14 3 14 3 14.625 5.875 C13.77209997 10.13950014 12.57053222 11.52248785 9 14 C5.87327402 14.41306246 3.17628148 14.23703593 0 14 C0 9.38 0 4.76 0 0 Z " fill="#E6EEF8" transform="translate(324,575)"/>
<path d="M0 0 C3.3 0.33 6.6 0.66 10 1 C10 1.66 10 2.32 10 3 C10.99 3.33 11.98 3.66 13 4 C14.72732636 7.45465272 14.35415682 11.21576878 14 15 C12.59471779 18.59127675 11.43148426 19.72193236 8.1875 21.8125 C4.87353477 23.0471145 2.50302515 23.25021608 -1 23 C-0.67 22.01 -0.34 21.02 0 20 C-1.32 19.67 -2.64 19.34 -4 19 C-3.07767578 18.94392578 -3.07767578 18.94392578 -2.13671875 18.88671875 C-1.32847656 18.82097656 -0.52023437 18.75523437 0.3125 18.6875 C1.11300781 18.62949219 1.91351563 18.57148437 2.73828125 18.51171875 C5.44579401 17.89913814 6.37572689 17.23337553 8 15 C8.57017808 12.95899762 8.57017808 12.95899762 8.6875 10.8125 C8.8421875 8.9253125 8.8421875 8.9253125 9 7 C5.88089144 5.20724134 3.32317572 4.65709282 -0.25 4.375 C-1.14203125 4.30023437 -2.0340625 4.22546875 -2.953125 4.1484375 C-3.96632813 4.07496094 -3.96632813 4.07496094 -5 4 C-5 3.67 -5 3.34 -5 3 C-2.36 3 0.28 3 3 3 C3 2.34 3 1.68 3 1 C2.01 0.67 1.02 0.34 0 0 Z " fill="#1B63D8" transform="translate(502,571)"/>
<path d="M0 0 C1.32 0 2.64 0 4 0 C3.28587238 2.38042541 2.57144655 4.76075513 1.85546875 7.140625 C1.31060426 8.96181589 0.77096702 10.78458476 0.23828125 12.609375 C-1.09122436 17.13954226 -2.53631586 21.56915851 -4.23828125 25.97265625 C-5.60477881 29.60964206 -6.7946697 33.30707314 -8 37 C-9.32 37 -10.64 37 -12 37 C-10.71489473 28.97460253 -8.25920572 21.60478667 -5.4375 14 C-4.8197168 12.30423828 -4.8197168 12.30423828 -4.18945312 10.57421875 C-1.19539969 2.39079939 -1.19539969 2.39079939 0 0 Z " fill="#3C558A" transform="translate(415,571)"/>
<path d="M0 0 C8.17817372 -0.36080178 8.17817372 -0.36080178 11.5625 1.125 C13 3 13 3 13.5 5.9375 C13 9 13 9 11.5625 11.375 C7.67632781 13.83940188 4.54866791 13.2675687 0 13 C0 8.71 0 4.42 0 0 Z " fill="#F5F8FB" transform="translate(462,575)"/>
<path d="M0 0 C2.73083902 -0.13548815 5.45491807 -0.23429855 8.1875 -0.3125 C8.95642578 -0.35439453 9.72535156 -0.39628906 10.51757812 -0.43945312 C14.80589704 -0.53147714 16.48894202 -0.38758532 20.0234375 2.29296875 C22.56826128 5.77827089 22.54792297 7.77316569 22 12 C21.01 13.485 21.01 13.485 20 15 C19.01 15 18.02 15 17 15 C16.96261719 14.37351562 16.92523438 13.74703125 16.88671875 13.1015625 C16.82097656 12.28429687 16.75523437 11.46703125 16.6875 10.625 C16.62949219 9.81289063 16.57148438 9.00078125 16.51171875 8.1640625 C16.17009472 5.62078662 16.17009472 5.62078662 13 4 C10.49103314 3.54398739 10.49103314 3.54398739 7.8125 3.375 C6.91144531 3.30023437 6.01039063 3.22546875 5.08203125 3.1484375 C4.39496094 3.09945312 3.70789063 3.05046875 3 3 C3.04125 4.03125 3.0825 5.0625 3.125 6.125 C3.00424851 9.86829627 2.35127982 12.53734547 1 16 C0.67 16 0.34 16 0 16 C0 10.72 0 5.44 0 0 Z " fill="#1F67D1" transform="translate(458,572)"/>
<path d="M0 0 C0.83689211 2.88989305 1.08425974 5.37324667 1 8.375 C0.95166768 12.03013157 1.26276592 15.40598385 2 19 C2.66 19 3.32 19 4 19 C4.33 17.68 4.66 16.36 5 15 C5.61875 15.969375 6.2375 16.93875 6.875 17.9375 C8.65678846 21.02835362 8.65678846 21.02835362 11 22 C13.71760108 22.07181821 16.40859388 22.09299506 19.125 22.0625 C20.25615234 22.05573242 20.25615234 22.05573242 21.41015625 22.04882812 C23.27347127 22.03703499 25.13674555 22.01909942 27 22 C27 23.32 27 24.64 27 26 C20.97056792 28.05257262 14.94793999 29.49965918 8.7890625 27.16015625 C4.46304089 24.77199934 1.59222079 22.01162667 -0.38671875 17.4609375 C-1.68457187 12.25299187 -2.45660624 4.91321248 0 0 Z " fill="#1F70DE" transform="translate(282,581)"/>
<path d="M0 0 C-0.57105469 0.27714844 -1.14210937 0.55429687 -1.73046875 0.83984375 C-13.46713298 6.83948106 -19.62615364 15.13791517 -25 27 C-25.66 26.01 -26.32 25.02 -27 24 C-27.66 24 -28.32 24 -29 24 C-26.92014242 15.68056967 -20.64279719 8.28626808 -14 3 C-9.412078 0.48777863 -5.25214027 -0.39391052 0 0 Z " fill="#E3DEDD" transform="translate(237,520)"/>
<path d="M0 0 C0.33 0 0.66 0 1 0 C1 3.96 1 7.92 1 12 C5.95 12 10.9 12 16 12 C16 13.32 16 14.64 16 16 C11.05 16 6.1 16 1 16 C1 18.64 1 21.28 1 24 C0.01 24.33 -0.98 24.66 -2 25 C-2.02720824 22.31243045 -2.0469388 19.62514202 -2.0625 16.9375 C-2.07087891 16.18533203 -2.07925781 15.43316406 -2.08789062 14.65820312 C-2.10807096 9.99654679 -1.8532507 5.58846007 -1 1 C-0.67 0.67 -0.34 0.34 0 0 Z " fill="#0957CB" transform="translate(429,575)"/>
<path d="M0 0 C0.99 0 1.98 0 3 0 C4.23759823 3.71279469 4.35608897 7.31306346 4.5625 11.1875 C4.60568359 11.93708984 4.64886719 12.68667969 4.69335938 13.45898438 C4.79922685 15.30578375 4.9000976 17.15286834 5 19 C4.34 19 3.68 19 3 19 C3 24.28 3 29.56 3 35 C2.34 35 1.68 35 1 35 C0.09710143 23.31068812 -0.11465457 11.72024504 0 0 Z " fill="#0A59D2" transform="translate(320,572)"/>
<path d="M0 0 C0.33 0 0.66 0 1 0 C1 4.29 1 8.58 1 13 C5.95 13 10.9 13 16 13 C16 14.32 16 15.64 16 17 C9.4 17 2.8 17 -4 17 C-3.67 14.36 -3.34 11.72 -3 9 C-2.34 8.67 -1.68 8.34 -1 8 C-0.53476937 6.10466658 -0.53476937 6.10466658 -0.375 3.9375 C-0.25125 2.638125 -0.1275 1.33875 0 0 Z " fill="#1F70DD" transform="translate(430,591)"/>
<path d="M0 0 C0.66 0 1.32 0 2 0 C3.18817968 3.73310433 3.11362739 7.27491645 3.09765625 11.171875 C3.09553383 12.1955014 3.09553383 12.1955014 3.09336853 13.23980713 C3.08779084 15.40991684 3.07524254 17.5799217 3.0625 19.75 C3.05748211 21.22525892 3.05291971 22.70051947 3.04882812 24.17578125 C3.03782875 27.78388798 3.02057953 31.39193375 3 35 C2.01 35 1.02 35 0 35 C0 23.45 0 11.9 0 0 Z " fill="#0E5CD0" transform="translate(356,572)"/>
<path d="M0 0 C5.53179027 -0.07462464 11.06328205 -0.12882498 16.59545898 -0.16479492 C18.4740917 -0.17980333 20.35268984 -0.20021652 22.23120117 -0.22631836 C24.94458593 -0.26305386 27.6575041 -0.27980607 30.37109375 -0.29296875 C31.61384315 -0.31619453 31.61384315 -0.31619453 32.88169861 -0.33988953 C38.74404927 -0.34154967 43.55775441 0.84360971 49 3 C48.34 3.99 47.68 4.98 47 6 C46.12214844 5.84660156 45.24429688 5.69320313 44.33984375 5.53515625 C38.45124273 4.69392753 32.49991031 4.63508976 26.5625 4.4375 C25.35400391 4.39431641 24.14550781 4.35113281 22.90039062 4.30664062 C19.93369394 4.20110596 16.96692098 4.09899286 14 4 C14 3.67 14 3.34 14 3 C21.92 3 29.84 3 38 3 C38 2.34 38 1.68 38 1 C25.46 1 12.92 1 0 1 C0 0.67 0 0.34 0 0 Z " fill="#B5B2B3" transform="translate(132,505)"/>
<path d="M0 0 C2.1382568 4.27651359 2.28456685 4.72450139 1 9 C0.19405501 10.95804995 -0.66201697 12.8960874 -1.5625 14.8125 C-2.01753906 15.78832031 -2.47257812 16.76414062 -2.94140625 17.76953125 C-3.29074219 18.50558594 -3.64007813 19.24164062 -4 20 C-5.32 19.67 -6.64 19.34 -8 19 C-8.66 16.69 -9.32 14.38 -10 12 C-9.34 12 -8.68 12 -8 12 C-8 10.35 -8 8.7 -8 7 C-7.01 8.32 -6.02 9.64 -5 11 C-3.35 7.37 -1.7 3.74 0 0 Z " fill="#1A6DDE" transform="translate(380,588)"/>
<path d="M0 0 C2.97 0.33 5.94 0.66 9 1 C8.67 1.99 8.34 2.98 8 4 C6.68 4 5.36 4 4 4 C4 8.62 4 13.24 4 18 C2.68 18 1.36 18 0 18 C0 12.06 0 6.12 0 0 Z " fill="#085BD5" transform="translate(493,590)"/>
<path d="M0 0 C0.33 0 0.66 0 1 0 C1 9.9 1 19.8 1 30 C0.01 30 -0.98 30 -2 30 C-2.04939662 26.04903022 -2.08571755 22.0981797 -2.10986328 18.14697266 C-2.12488107 16.1408864 -2.15028981 14.13488676 -2.17578125 12.12890625 C-2.18544922 10.24365234 -2.18544922 10.24365234 -2.1953125 8.3203125 C-2.20578613 7.15773926 -2.21625977 5.99516602 -2.22705078 4.79736328 C-2 2 -2 2 0 0 Z " fill="#0961D8" transform="translate(392,577)"/>
<path d="M0 0 C0.99 0.33 1.98 0.66 3 1 C2.68289063 1.80695312 2.36578125 2.61390625 2.0390625 3.4453125 C0.81087411 7.64700961 0.55200991 11.5235065 0.375 15.875 C0.31699219 17.050625 0.31699219 17.050625 0.2578125 18.25 C0.16433378 20.16631367 0.08111505 22.08312319 0 24 C-0.66 24 -1.32 24 -2 24 C-5.05401111 16.55584793 -4.74013182 9.45924773 -2 2 C-1.34 1.34 -0.68 0.68 0 0 Z " fill="#1059CD" transform="translate(286,576)"/>
<path d="M0 0 C4.62 0 9.24 0 14 0 C14 0.33 14 0.66 14 1 C9.71 1 5.42 1 1 1 C1.33 5.95 1.66 10.9 2 16 C2.66 12.04 3.32 8.08 4 4 C4.33 4 4.66 4 5 4 C5 8.29 5 12.58 5 17 C12.16155468 16.71636678 12.16155468 16.71636678 18 13 C18 13.99 18 14.98 18 16 C18.66 16 19.32 16 20 16 C20 16.66 20 17.32 20 18 C19.01 18.33 18.02 18.66 17 19 C17 18.34 17 17.68 17 17 C16.34 17.33 15.68 17.66 15 18 C12.62597499 18.07116382 10.24999323 18.08409085 7.875 18.0625 C6.59367187 18.05347656 5.31234375 18.04445313 3.9921875 18.03515625 C2.51105469 18.01775391 2.51105469 18.01775391 1 18 C0.67 18.66 0.34 19.32 0 20 C0 13.4 0 6.8 0 0 Z " fill="#3F7CD7" transform="translate(457,571)"/>
<path d="M0 0 C1.71484375 1.515625 1.71484375 1.515625 3 3 C1.92621094 3.15855469 0.85242188 3.31710937 -0.25390625 3.48046875 C-11.01943003 5.12672328 -11.01943003 5.12672328 -20 11 C-20.66 10.67 -21.32 10.34 -22 10 C-20.74838228 6.24514684 -19.54425403 5.83105872 -16.1875 3.875 C-14.87845703 3.09769531 -14.87845703 3.09769531 -13.54296875 2.3046875 C-9.01281672 -0.01953796 -5.09614817 -0.37062896 0 0 Z " fill="#D7D7D7" transform="translate(135,506)"/>
<path d="M0 0 C0.66 0 1.32 0 2 0 C2 1.65 2 3.3 2 5 C2.66 5 3.32 5 4 5 C4 7.64 4 10.28 4 13 C1.36 13 -1.28 13 -4 13 C-3.29880478 4.58565737 -3.29880478 4.58565737 0 1 C0 0.67 0 0.34 0 0 Z " fill="#04092B" transform="translate(583,543)"/>
<path d="M0 0 C0 1.32 0 2.64 0 4 C-5.29683222 5.80317693 -10.38934703 6.77703544 -16 6 C-16.66 5.34 -17.32 4.68 -18 4 C-16.35 4 -14.7 4 -13 4 C-13 3.01 -13 2.02 -13 1 C-11.39602723 0.83147753 -9.7918131 0.66525114 -8.1875 0.5 C-7.29417969 0.4071875 -6.40085937 0.314375 -5.48046875 0.21875 C-3 0 -3 0 0 0 Z " fill="#2873DF" transform="translate(309,603)"/>
<path d="M0 0 C4.29 0 8.58 0 13 0 C13 0.66 13 1.32 13 2 C8.545 2.495 8.545 2.495 4 3 C3.87882812 3.85464844 3.75765625 4.70929687 3.6328125 5.58984375 C3.46523438 6.69457031 3.29765625 7.79929687 3.125 8.9375 C2.88136719 10.59072266 2.88136719 10.59072266 2.6328125 12.27734375 C2.42398437 13.17582031 2.21515625 14.07429687 2 15 C1.01 15.495 1.01 15.495 0 16 C0 10.72 0 5.44 0 0 Z " fill="#084FC9" transform="translate(458,572)"/>
<path d="M0 0 C1.485 0.99 1.485 0.99 3 2 C3.28051758 4.56616211 3.28051758 4.56616211 3.14453125 7.77734375 C3.07588867 9.50694336 3.07588867 9.50694336 3.00585938 11.27148438 C2.94205078 12.48126953 2.87824219 13.69105469 2.8125 14.9375 C2.76802734 16.14341797 2.72355469 17.34933594 2.67773438 18.59179688 C2.27059468 27.59410799 2.27059468 27.59410799 0 31 C0 20.77 0 10.54 0 0 Z " fill="#060D2D" transform="translate(859,520)"/>
<path d="M0 0 C2.32510245 2.84179188 4.57700599 5.72826599 6.75 8.6875 C7.17796875 9.26886719 7.6059375 9.85023438 8.046875 10.44921875 C9 12 9 12 9 14 C7.02 14 5.04 14 3 14 C1.35 10.7 -0.3 7.4 -2 4 C-1.34 4 -0.68 4 0 4 C0 2.68 0 1.36 0 0 Z " fill="#1566DA" transform="translate(475,594)"/>
<path d="M0 0 C0.99 0 1.98 0 3 0 C6.04157942 5.22771463 7.50610724 8.92671312 7 15 C5.1875 14.5 5.1875 14.5 3 13 C0.77313274 8.85374088 -0.44351374 4.73081322 0 0 Z " fill="#0F58CD" transform="translate(365,585)"/>
<path d="M0 0 C4.62 0 9.24 0 14 0 C14 1.32 14 2.64 14 4 C9.71 4 5.42 4 1 4 C0.67 2.68 0.34 1.36 0 0 Z " fill="#1F69D7" transform="translate(431,587)"/>
<path d="M0 0 C3.3 0.33 6.6 0.66 10 1 C10 1.66 10 2.32 10 3 C10.99 3.33 11.98 3.66 13 4 C12.67 4.66 12.34 5.32 12 6 C9.5625 6.75 9.5625 6.75 7 7 C6.34 6.34 5.68 5.68 5 5 C2.56747339 4.53837573 2.56747339 4.53837573 -0.125 4.375 C-1.03507812 4.30023437 -1.94515625 4.22546875 -2.8828125 4.1484375 C-3.58148438 4.09945312 -4.28015625 4.05046875 -5 4 C-5 3.67 -5 3.34 -5 3 C-2.36 3 0.28 3 3 3 C3 2.34 3 1.68 3 1 C2.01 0.67 1.02 0.34 0 0 Z " fill="#3671DE" transform="translate(502,571)"/>
<path d="M0 0 C1.98 0.495 1.98 0.495 4 1 C4 3.97 4 6.94 4 10 C2.68 10.33 1.36 10.66 0 11 C-0.19406478 9.35492782 -0.38007935 7.70890406 -0.5625 6.0625 C-0.66691406 5.14597656 -0.77132813 4.22945312 -0.87890625 3.28515625 C-0.91886719 2.53105469 -0.95882813 1.77695312 -1 1 C-0.67 0.67 -0.34 0.34 0 0 Z " fill="#0B4FCA" transform="translate(512,576)"/>
<path d="M0 0 C0.66 0.99 1.32 1.98 2 3 C2.66 2.67 3.32 2.34 4 2 C2.25 7.75 2.25 7.75 0 10 C-1.32303717 10.3721042 -2.65737935 10.70630173 -4 11 C-4.99 11.495 -4.99 11.495 -6 12 C-4.43358249 7.69235185 -2.31663844 3.93828536 0 0 Z " fill="#181D4A" transform="translate(707,505)"/>
<path d="M0 0 C1.32 0 2.64 0 4 0 C3.57476184 1.60746056 3.13429874 3.21089836 2.6875 4.8125 C2.44386719 5.70582031 2.20023437 6.59914063 1.94921875 7.51953125 C0.9799181 10.05247738 0.04990396 11.2716496 -2 13 C-2.05447047 11.58376784 -2.09300508 10.16691809 -2.125 8.75 C-2.14820313 7.96109375 -2.17140625 7.1721875 -2.1953125 6.359375 C-1.9828378 3.79268059 -1.28654105 2.2083933 0 0 Z " fill="#1D3775" transform="translate(415,571)"/>
<path d="M0 0 C3.37462715 0.54723683 5.08235 1.0549 8 3 C8 3.66 8 4.32 8 5 C5.6875 5.625 5.6875 5.625 3 6 C2.01 5.34 1.02 4.68 0 4 C-2.27912938 3.54605448 -2.27912938 3.54605448 -4.6875 3.375 C-5.49574219 3.30023437 -6.30398438 3.22546875 -7.13671875 3.1484375 C-7.75160156 3.09945312 -8.36648438 3.05046875 -9 3 C-9 2.67 -9 2.34 -9 2 C-6.03 2 -3.06 2 0 2 C0 1.34 0 0.68 0 0 Z " fill="#2363D3" transform="translate(471,572)"/>
<path d="M0 0 C1.32 0.66 2.64 1.32 4 2 C2.35 5.63 0.7 9.26 -1 13 C-1.66 13 -2.32 13 -3 13 C-3.31563182 7.73946963 -2.66590937 4.55426184 0 0 Z " fill="#1963D1" transform="translate(384,579)"/>
<path d="M0 0 C1.28132813 0.00902344 2.56265625 0.01804687 3.8828125 0.02734375 C4.87023437 0.03894531 5.85765625 0.05054688 6.875 0.0625 C6.875 1.3825 6.875 2.7025 6.875 4.0625 C6.16988281 3.89878906 5.46476562 3.73507812 4.73828125 3.56640625 C1.77841312 3.04550176 -0.93561273 2.96383268 -3.9375 3 C-4.91332031 3.00902344 -5.88914062 3.01804687 -6.89453125 3.02734375 C-7.63058594 3.03894531 -8.36664063 3.05054688 -9.125 3.0625 C-9.125 2.4025 -9.125 1.7425 -9.125 1.0625 C-6.12186252 -0.43906874 -3.33432478 -0.03031204 0 0 Z " fill="#125ED8" transform="translate(302.125,571.9375)"/>
<path d="M0 0 C1.4656401 0.03315928 2.93087264 0.09269146 4.39453125 0.17578125 C5.14412109 0.19833984 5.89371094 0.22089844 6.66601562 0.24414062 C8.51387595 0.30298968 10.36070792 0.39267187 12.20703125 0.48828125 C11.87703125 1.47828125 11.54703125 2.46828125 11.20703125 3.48828125 C10.87703125 2.82828125 10.54703125 2.16828125 10.20703125 1.48828125 C5.91703125 1.48828125 1.62703125 1.48828125 -2.79296875 1.48828125 C-3.77980946 5.15569679 -3.77980946 5.15569679 -4.10546875 7.61328125 C-4.79296875 9.48828125 -4.79296875 9.48828125 -6.85546875 10.73828125 C-7.49484375 10.98578125 -8.13421875 11.23328125 -8.79296875 11.48828125 C-5.53519363 0.71256355 -5.53519363 0.71256355 0 0 Z " fill="#212851" transform="translate(716.79296875,493.51171875)"/>
<path d="M0 0 C4.62 0 9.24 0 14 0 C14 0.99 14 1.98 14 3 C12.41676312 3.027193 10.83338938 3.04648306 9.25 3.0625 C7.92742187 3.07990234 7.92742187 3.07990234 6.578125 3.09765625 C4.2181162 3.00826198 2.25501476 2.66912821 0 2 C0 1.34 0 0.68 0 0 Z " fill="#044FD1" transform="translate(431,572)"/>
<path d="M0 0 C0.33 0 0.66 0 1 0 C1.33 4.62 1.66 9.24 2 14 C2.33 10.04 2.66 6.08 3 2 C3.33 2 3.66 2 4 2 C4 6.95 4 11.9 4 17 C2.68 17 1.36 17 0 17 C0 11.39 0 5.78 0 0 Z " fill="#186EDA" transform="translate(457,591)"/>
<path d="M0 0 C1.32 0 2.64 0 4 0 C4 0.66 4 1.32 4 2 C5.32 2.33 6.64 2.66 8 3 C6.68 3 5.36 3 4 3 C4 6.96 4 10.92 4 15 C3.67 15 3.34 15 3 15 C2.67 11.37 2.34 7.74 2 4 C1.67 6.31 1.34 8.62 1 11 C0.67 11 0.34 11 0 11 C0 7.37 0 3.74 0 0 Z " fill="#2D6DD4" transform="translate(427,572)"/>
<path d="M0 0 C0.66 0 1.32 0 2 0 C3.89455962 5.68367887 3.14711018 10.49803017 1 16 C0.67 16 0.34 16 0 16 C0 10.72 0 5.44 0 0 Z " fill="#054BC6" transform="translate(321,572)"/>
<path d="M0 0 C0.66 0.99 1.32 1.98 2 3 C1.34 4.32 0.68 5.64 0 7 C4.29 7.33 8.58 7.66 13 8 C12.67 5.69 12.34 3.38 12 1 C14 4 14 4 15 9 C9.72 9 4.44 9 -1 9 C-1 2 -1 2 0 0 Z " fill="#C5C7CF" transform="translate(813,522)"/>
<path d="M0 0 C0.99 0 1.98 0 3 0 C2.34 2.97 1.68 5.94 1 9 C-0.32 9 -1.64 9 -3 9 C-2.5020163 5.26512223 -2.12508244 3.18762365 0 0 Z " fill="#193773" transform="translate(406,599)"/>
<path d="M0 0 C0.33 1.32 0.66 2.64 1 4 C5.455 3.505 5.455 3.505 10 3 C10 3.99 10 4.98 10 6 C5.71 6 1.42 6 -3 6 C-1 1 -1 1 0 0 Z " fill="#01072C" transform="translate(726,551)"/>
<path d="M0 0 C2.50298434 2.93828597 3.46930939 5.17902761 4 9 C3.34 9 2.68 9 2 9 C1.67 9.99 1.34 10.98 1 12 C0.01 9.36 -0.98 6.72 -2 4 C-1.34 4 -0.68 4 0 4 C0 2.68 0 1.36 0 0 Z " fill="#2D70DA" transform="translate(363,576)"/>
<path d="M0 0 C1.32 0 2.64 0 4 0 C3.835 0.61875 3.67 1.2375 3.5 1.875 C2.92365356 3.96063386 2.92365356 3.96063386 3 6 C3 7.32 3 8.64 3 10 C1.68 9.67 0.36 9.34 -1 9 C-0.67 6.03 -0.34 3.06 0 0 Z " fill="#7A7A79" transform="translate(248,533)"/>
<path d="M0 0 C9.41002278 -0.18451025 9.41002278 -0.18451025 14 1 C9.86621405 3.7558573 7.94796454 4.10756445 3 4 C3.33 3.01 3.66 2.02 4 1 C2.68 0.67 1.36 0.34 0 0 Z " fill="#2973E3" transform="translate(498,590)"/>
<path d="M0 0 C0.33 0 0.66 0 1 0 C1.144375 0.78375 1.28875 1.5675 1.4375 2.375 C1.87798925 4.96421018 1.87798925 4.96421018 3 7 C2.39421747 9.01927511 1.73080266 11.02253397 1 13 C0.34 12.01 -0.32 11.02 -1 10 C-1.99 10.495 -1.99 10.495 -3 11 C-2.01 7.37 -1.02 3.74 0 0 Z " fill="#3F588E" transform="translate(412,578)"/>
<path d="M0 0 C0.33 1.32 0.66 2.64 1 4 C-0.41655793 4.0272415 -1.83327045 4.04650467 -3.25 4.0625 C-4.43335938 4.07990234 -4.43335938 4.07990234 -5.640625 4.09765625 C-7.90691002 4.00385306 -9.8288895 3.63241063 -12 3 C-12 2.34 -12 1.68 -12 1 C-11.21753906 1.01160156 -10.43507813 1.02320313 -9.62890625 1.03515625 C-8.61699219 1.04417969 -7.60507812 1.05320312 -6.5625 1.0625 C-5.04849609 1.07990234 -5.04849609 1.07990234 -3.50390625 1.09765625 C-1.05978933 1.28612676 -1.05978933 1.28612676 0 0 Z " fill="#01072C" transform="translate(785,553)"/>
<path d="M0 0 C1 3 1 3 -0.1875 6.4375 C-1.84375447 9.69289671 -3.26548253 11.64265735 -6 14 C-5.57316761 12.41375765 -5.13303842 10.8310902 -4.6875 9.25 C-4.32205078 7.92742188 -4.32205078 7.92742188 -3.94921875 6.578125 C-2.97874669 3.94227495 -1.78994356 2.14592674 0 0 Z " fill="#1F2B4A" transform="translate(587,533)"/>
<path d="M0 0 C0.33 1.32 0.66 2.64 1 4 C1.66 4 2.32 4 3 4 C3.33 3.34 3.66 2.68 4 2 C3.67 3.98 3.34 5.96 3 8 C2.38125 8.103125 1.7625 8.20625 1.125 8.3125 C-1.36526484 8.87525373 -1.36526484 8.87525373 -3 12 C-2.25749403 7.91621717 -1.17076699 3.98060777 0 0 Z " fill="#242B53" transform="translate(552,528)"/>
<path d="M0 0 C0.66 0.99 1.32 1.98 2 3 C1.01 4.485 1.01 4.485 0 6 C3.3 6 6.6 6 10 6 C10.33 5.01 10.66 4.02 11 3 C11.33 4.32 11.66 5.64 12 7 C7.38 7 2.76 7 -2 7 C-1.34 4.69 -0.68 2.38 0 0 Z " fill="#192342" transform="translate(579,550)"/>
<path d="M0 0 C0.33 0 0.66 0 1 0 C1 3.63 1 7.26 1 11 C0.01 11 -0.98 11 -2 11 C-2.25 3.375 -2.25 3.375 0 0 Z " fill="#0356CE" transform="translate(358,596)"/>
<path d="M0 0 C4.82360189 -0.19294408 8.49646738 0.24252386 13 2 C12.67 2.66 12.34 3.32 12 4 C7.97007218 3.44687265 3.97977076 2.8441938 0 2 C0 1.34 0 0.68 0 0 Z " fill="#C5BEBA" transform="translate(163,520)"/>
<path d="M0 0 C0.66 0 1.32 0 2 0 C3 3 4 6 5 9 C4.34 9 3.68 9 3 9 C2.34 9.66 1.68 10.32 1 11 C-0.84501396 7.20144184 -1.13013111 5.06847199 0 1 C0 0.67 0 0.34 0 0 Z " fill="#2C71DD" transform="translate(334,587)"/>
<path d="M0 0 C0.99 0.33 1.98 0.66 3 1 C2.34 2.98 1.68 4.96 1 7 C-0.32 7 -1.64 7 -3 7 C-2.25 2.25 -2.25 2.25 0 0 Z " fill="#0D5DD7" transform="translate(286,576)"/>
<path d="M0 0 C2.31 0 4.62 0 7 0 C5.8553125 0.86625 5.8553125 0.86625 4.6875 1.75 C1.99108421 3.83357198 1.99108421 3.83357198 0.3125 6.25 C-0.3371875 7.11625 -0.3371875 7.11625 -1 8 C-1.66 8 -2.32 8 -3 8 C-1.125 2.25 -1.125 2.25 0 0 Z " fill="#292C51" transform="translate(811,494)"/>
<path d="M0 0 C2 1.8125 2 1.8125 4 4 C4 4.99 4 5.98 4 7 C3.01 7 2.02 7 1 7 C1 8.65 1 10.3 1 12 C-0.20628008 9.66785852 -1.1654738 7.50357861 -2 5 C-1.34 5 -0.68 5 0 5 C0 3.35 0 1.7 0 0 Z " fill="#3680E5" transform="translate(372,595)"/>
<path d="M0 0 C3.3125 -0.1875 3.3125 -0.1875 7 0 C7.99 0.99 8.98 1.98 10 3 C6.04 3 2.08 3 -2 3 C-1.34 2.67 -0.68 2.34 0 2 C0 1.34 0 0.68 0 0 Z " fill="#E8E7E8" transform="translate(128,506)"/>
<path d="M0 0 C0 1.32 0 2.64 0 4 C-1.32 4 -2.64 4 -4 4 C-4 3.34 -4 2.68 -4 2 C-6.97 2 -9.94 2 -13 2 C-13 1.67 -13 1.34 -13 1 C-11.39602723 0.83147753 -9.7918131 0.66525114 -8.1875 0.5 C-7.29417969 0.4071875 -6.40085937 0.314375 -5.48046875 0.21875 C-3 0 -3 0 0 0 Z " fill="#4F8DE1" transform="translate(309,603)"/>
<path d="M0 0 C0.66 0 1.32 0 2 0 C1.125 6.75 1.125 6.75 0 9 C-0.66 9 -1.32 9 -2 9 C-2.25 3.375 -2.25 3.375 0 0 Z " fill="#091133" transform="translate(563,528)"/>
<path d="M0 0 C0.66 0 1.32 0 2 0 C2.33 1.32 2.66 2.64 3 4 C3.66 4 4.32 4 5 4 C4.67 5.65 4.34 7.3 4 9 C3.34 9 2.68 9 2 9 C0.50178941 5.62902617 0 3.79557881 0 0 Z " fill="#040B31" transform="translate(762,524)"/>
<path d="M0 0 C2 2 2 2 2.125 5.625 C2.08375 6.73875 2.0425 7.8525 2 9 C0.68 8.34 -0.64 7.68 -2 7 C-2 6.01 -2 5.02 -2 4 C-1.34 4 -0.68 4 0 4 C0 2.68 0 1.36 0 0 Z " fill="#1D6BD8" transform="translate(370,591)"/>
<path d="M0 0 C1.37562854 1.28965176 2.70766393 2.62689293 4 4 C4 4.66 4 5.32 4 6 C2.02 6 0.04 6 -2 6 C-1.49396008 3.83125748 -1.00016187 2.00032373 0 0 Z " fill="#2A72D7" transform="translate(480,602)"/>
<path d="M0 0 C0.33 0 0.66 0 1 0 C0.67 2.64 0.34 5.28 0 8 C-0.99 8 -1.98 8 -3 8 C-1.125 1.125 -1.125 1.125 0 0 Z " fill="#0B296C" transform="translate(411,587)"/>
<path d="M0 0 C1.04005702 3.38018531 1.08004482 6.4780279 1 10 C0.01 10 -0.98 10 -2 10 C-1.125 2.25 -1.125 2.25 0 0 Z " fill="#272D4A" transform="translate(790,546)"/>
<path d="M0 0 C1 2 1 2 0.875 3.875 C-0.35753168 6.86829122 -2.41459763 8.14381368 -5 10 C-3.84414715 6.08788267 -2.64465038 3.1254959 0 0 Z " fill="#151D3B" transform="translate(728,545)"/>
<path d="M0 0 C0.66 0 1.32 0 2 0 C2.6875 2.8125 2.6875 2.8125 3 6 C2.01 6.99 1.02 7.98 0 9 C0 6.03 0 3.06 0 0 Z " fill="#030A2D" transform="translate(692,532)"/>
<path d="M0 0 C0.66 0 1.32 0 2 0 C2.33 1.65 2.66 3.3 3 5 C1.35 5.66 -0.3 6.32 -2 7 C-1.34 4.69 -0.68 2.38 0 0 Z " fill="#CFD3DE" transform="translate(818,508)"/>
<path d="M0 0 C2.0625 0.6875 2.0625 0.6875 5.0625 2.6875 C0.6075 3.1825 0.6075 3.1825 -3.9375 3.6875 C-3.9375 2.6975 -3.9375 1.7075 -3.9375 0.6875 C-1.9375 -0.3125 -1.9375 -0.3125 0 0 Z " fill="#CFCED0" transform="translate(125.9375,507.3125)"/>
<path d="M0 0 C0.82810826 3.31243305 1.09278428 5.65976579 1 9 C-0.98 9.99 -0.98 9.99 -3 11 C-2.01 7.37 -1.02 3.74 0 0 Z " fill="#464869" transform="translate(563,496)"/>
<path d="M0 0 C0.66 0.99 1.32 1.98 2 3 C1.34 4.32 0.68 5.64 0 7 C1.32 7.66 2.64 8.32 4 9 C2.35 9 0.7 9 -1 9 C-1.125 2.25 -1.125 2.25 0 0 Z " fill="#DADDDD" transform="translate(813,522)"/>
<path d="M0 0 C0.99 0.33 1.98 0.66 3 1 C2.34 1 1.68 1 1 1 C1 2.65 1 4.3 1 6 C0.01 6 -0.98 6 -2 6 C-1.125 1.125 -1.125 1.125 0 0 Z " fill="#1660D6" transform="translate(338,583)"/>
<path d="M0 0 C0.99 0 1.98 0 3 0 C3 1.65 3 3.3 3 5 C2.01 5.33 1.02 5.66 0 6 C-0.38218767 4.34385343 -0.71395102 2.67542976 -1 1 C-0.67 0.67 -0.34 0.34 0 0 Z " fill="#044FCC" transform="translate(476,577)"/>
<path d="M0 0 C2 1.375 2 1.375 4 3 C4 3.66 4 4.32 4 5 C1.03 5 -1.94 5 -5 5 C-5 4.67 -5 4.34 -5 4 C-3.35 4 -1.7 4 0 4 C0 2.68 0 1.36 0 0 Z " fill="#03072B" transform="translate(796,551)"/>
<path d="M0 0 C1.32 0.66 2.64 1.32 4 2 C3.01 3.98 2.02 5.96 1 8 C-0.42944945 5.64561267 -1.08661261 4.51967567 -0.625 1.75 C-0.41875 1.1725 -0.2125 0.595 0 0 Z " fill="#DFDBD8" transform="translate(211,539)"/>
</svg>
