<?xml version="1.0" encoding="UTF-8"?>
<svg version="1.1" xmlns="http://www.w3.org/2000/svg" width="305" height="305">
<path d="M0 0 C100.65 0 201.3 0 305 0 C305 100.65 305 201.3 305 305 C204.35 305 103.7 305 0 305 C0 204.35 0 103.7 0 0 Z " fill="#010101" transform="translate(0,0)"/>
<path d="M0 0 C100.65 0 201.3 0 305 0 C305 47.19 305 94.38 305 143 C304.67 143 304.34 143 304 143 C303.90203125 141.97003906 303.8040625 140.94007813 303.703125 139.87890625 C300.30768389 106.55694053 287.95842447 75.75974947 264.953125 51.10546875 C263.35939276 49.38742539 261.88541074 47.65134665 260.4375 45.8125 C243.80702636 26.62349195 216.25207234 12.52184866 192 6 C190.90727783 5.70367676 190.90727783 5.70367676 189.79248047 5.40136719 C165.64092199 -0.78978122 135.98661349 -0.98747065 112 6 C111.18934082 6.23074219 110.37868164 6.46148438 109.54345703 6.69921875 C91.77175001 11.93005796 74.41492674 20.28493739 60 32 C59.10539062 32.69480469 58.21078125 33.38960937 57.2890625 34.10546875 C38.76449145 48.76426797 25.02152845 66.65607161 15 88 C15.40089844 87.48050781 15.80179688 86.96101563 16.21484375 86.42578125 C20.55680607 81.09924697 24.76037573 77.84309836 31 75 C31.64839844 74.70351562 32.29679687 74.40703125 32.96484375 74.1015625 C48.49998001 67.68418515 66.74650163 68.8178884 83.25 68.875 C84.56526672 68.87882187 84.56526672 68.87882187 85.90710449 68.88272095 C91.15502211 68.90055113 96.40264839 68.93430505 101.65039062 68.98040771 C103.78776039 68.99823023 105.92508726 69.01082918 108.0625 69.02197266 C134.00641993 69.22815413 156.77577134 73.54129261 176.109375 92.015625 C191.59802665 108.22467905 195.48899845 127.87203657 195.30078125 149.5625 C195.10475832 156.40621335 193.87102078 162.46656059 191.875 168.98828125 C190.81400302 172.11748633 190.81400302 172.11748633 191 176 C191.29132813 175.26587891 191.58265625 174.53175781 191.8828125 173.77539062 C207.0999422 135.56508225 207.0999422 135.56508225 220 119 C220.66902344 118.13375 221.33804688 117.2675 222.02734375 116.375 C229.91702976 106.82347829 239.94837196 101.55593654 252 99 C254.77652154 98.74569397 257.21133511 98.78128119 260 99 C260 99.66 260 100.32 260 101 C259.33355469 101.12375 258.66710937 101.2475 257.98046875 101.375 C242.15352837 104.91669295 231.43052529 117.14136092 223 130.375 C214.91906233 143.57560678 208.57716287 157.53568512 203.625 172.1875 C203.31546387 173.09951172 203.00592773 174.01152344 202.68701172 174.95117188 C201.71787608 177.95080213 200.84326502 180.9624952 200 184 C199.82246185 184.62331207 199.64492371 185.24662415 199.46200562 185.88882446 C196.04559695 198.18466122 195.40194799 210.01376208 195.53344727 222.73657227 C195.56289389 225.8542028 195.55390578 228.97017503 195.54101562 232.08789062 C195.54724122 234.08594573 195.55562285 236.08399555 195.56640625 238.08203125 C195.56347061 239.00595169 195.56053497 239.92987213 195.55751038 240.88179016 C195.62850879 245.70942873 195.78875996 249.12492299 199 253 C202.92052115 255.43943538 206.43388734 256.45641516 211 257 C211 257.66 211 258.32 211 259 C195.82 259 180.64 259 165 259 C165 258.34 165 257.68 165 257 C166.2375 256.71125 167.475 256.4225 168.75 256.125 C174.5840288 254.76164218 174.5840288 254.76164218 178.58276367 250.5402832 C180.42732312 245.93253875 180.41338891 242.01977249 180.36328125 237.10546875 C180.36377975 236.15867752 180.36427826 235.21188629 180.36479187 234.23640442 C180.3624579 232.23855485 180.35276943 230.24070199 180.33618164 228.24291992 C180.3126581 225.20789842 180.31561783 222.17376105 180.32226562 219.13867188 C180.31668559 217.190099 180.30957368 215.24152978 180.30078125 213.29296875 C180.30214836 211.94721016 180.30214836 211.94721016 180.30354309 210.57426453 C180.23935653 204.77736744 179.43017114 199.62140172 178 194 C177.55011719 194.49628906 177.10023438 194.99257812 176.63671875 195.50390625 C167.3069948 205.35714177 155.10149673 212.37618176 142 216 C141.11575851 216.25243973 141.11575851 216.25243973 140.21365356 216.50997925 C131.08600718 218.72920642 121.75590305 218.24965268 112.4296875 218.1953125 C110.5382604 218.19157659 108.64683135 218.18873235 106.75540161 218.18673706 C101.80707337 218.17914606 96.85886484 218.1595371 91.9105835 218.1373291 C86.84925963 218.1167724 81.78791619 218.10771444 76.7265625 218.09765625 C66.81765609 218.07628645 56.90883805 218.04220599 47 218 C47 217.34 47 216.68 47 216 C47.59167969 215.90203125 48.18335938 215.8040625 48.79296875 215.703125 C53.81421704 214.75293772 57.37489127 213.84481229 61 210 C62.74900212 206.3917653 63.25515954 203.4918592 63.2784729 199.50138855 C63.28963638 198.40908936 63.30079987 197.31679016 63.31230164 196.19139099 C63.31446182 195.0031221 63.31662201 193.81485321 63.31884766 192.59057617 C63.32889328 191.33163544 63.3389389 190.0726947 63.34928894 188.77560425 C63.37654685 185.33180816 63.39172578 181.88805288 63.40471697 178.44417739 C63.42036599 174.84199461 63.44715055 171.23989495 63.4727478 167.63777161 C63.51950428 160.82039572 63.5562635 154.00300415 63.58942068 147.18555003 C63.62766422 139.42253161 63.67706852 131.65959673 63.72740483 123.89664876 C63.83067809 107.93115959 63.91995342 91.96562354 64 76 C61.01206319 76.27963393 58.02554259 76.56879462 55.0390625 76.86328125 C54.20511963 76.94034302 53.37117676 77.01740479 52.51196289 77.09680176 C39.37651293 78.41417447 27.03933307 81.70855128 18.19921875 92.12109375 C16.72299907 94.0412363 15.33802463 95.98199564 14 98 C12 101 12 101 9 102 C7.24643701 106.19357411 6.17617819 110.61330966 5 115 C4.79246094 115.75925781 4.58492188 116.51851563 4.37109375 117.30078125 C2.5396449 124.72752263 1.87491574 132.41429435 1 140 C0.67 140 0.34 140 0 140 C0 93.8 0 47.6 0 0 Z " fill="#FBFBFB" transform="translate(0,0)"/>
<path d="M0 0 C67.26605505 0 67.26605505 0 84 16 C98.60977363 32.52700306 102.70067101 50.56465717 102 72 C99.56816027 69.0081467 97.76591142 65.84412035 95.94360352 62.46704102 C86.92637224 45.78915308 75.5322747 32.14380526 56.9921875 26.00390625 C50.06110773 24.11278919 43.16161421 23.36823903 36 23 C36 23.66 36 24.32 36 25 C37.60875 25.061875 37.60875 25.061875 39.25 25.125 C53.2078939 26.9284093 63.47273853 37.47863016 71.75390625 47.984375 C80.72848081 60.03371685 98.2908056 83.83801503 96.76171875 99.4296875 C93.15638587 111.59537485 83.39645186 122.19977014 72.5625 128.4375 C49.04957769 140.07622835 27.72126968 136 0 136 C0 91.12 0 46.24 0 0 Z " fill="#030303" transform="translate(77,76)"/>
<path d="M0 0 C0.33 0 0.66 0 1 0 C1 46.86 1 93.72 1 142 C-45.53 142 -92.06 142 -140 142 C-140 141.67 -140 141.34 -140 141 C-138.99924438 140.88108398 -138.99924438 140.88108398 -137.97827148 140.75976562 C-101.22394847 136.21219152 -69.37276265 122.15228296 -43 96 C-42.06414062 95.07703125 -41.12828125 94.1540625 -40.1640625 93.203125 C-16.00746515 68.1467117 -2.728202 34.37534521 0 0 Z " fill="#FDFDFD" transform="translate(304,163)"/>
<path d="M0 0 C0.33 0 0.66 0 1 0 C1.06469482 0.58265625 1.12938965 1.1653125 1.19604492 1.765625 C2.6375304 14.35666043 4.60181461 26.1012265 9 38 C9.23090332 38.6295459 9.46180664 39.2590918 9.69970703 39.90771484 C17.68601311 61.45153022 28.96438402 79.57952923 45 96 C45.58910156 96.639375 46.17820313 97.27875 46.78515625 97.9375 C70.03377609 122.61416774 106.5684838 137.71879066 140 140 C140 140.33 140 140.66 140 141 C93.8 141 47.6 141 0 141 C0 94.47 0 47.94 0 0 Z " fill="#FDFDFD" transform="translate(0,164)"/>
<path d="M0 0 C1.65 0 3.3 0 5 0 C5.38218767 1.65614657 5.71395102 3.32457024 6 5 C5 6 5 6 2.4375 6.0625 C1.2309375 6.0315625 1.2309375 6.0315625 0 6 C0 4.02 0 2.04 0 0 Z " fill="#E0E0E0" transform="translate(221,40)"/>
<path d="M0 0 C2.31 0.33 4.62 0.66 7 1 C6.67 2.98 6.34 4.96 6 7 C3.03 6.505 3.03 6.505 0 6 C0 4.02 0 2.04 0 0 Z " fill="#D0D0D0" transform="translate(283,138)"/>
<path d="M0 0 C0.33 0.66 0.66 1.32 1 2 C1.66 2.33 2.32 2.66 3 3 C1.68 6.63 0.36 10.26 -1 14 C-3 10 -3 10 -2.5390625 7.421875 C-2.23742187 6.54015625 -1.93578125 5.6584375 -1.625 4.75 C-1.32851562 3.85796875 -1.03203125 2.9659375 -0.7265625 2.046875 C-0.48679688 1.37140625 -0.24703125 0.6959375 0 0 Z " fill="#202020" transform="translate(192,165)"/>
<path d="M0 0 C2.31 0.66 4.62 1.32 7 2 C6.34 3.32 5.68 4.64 5 6 C3.35 6 1.7 6 0 6 C0 5.34 0 4.68 0 4 C0.66 4 1.32 4 2 4 C2 3.34 2 2.68 2 2 C1.34 2 0.68 2 0 2 C0 1.34 0 0.68 0 0 Z " fill="#CDCDCD" transform="translate(284,125)"/>
<path d="M0 0 C-0.61277612 2.96175123 -1.25372522 4.38058783 -3 7 C-3.66 7 -4.32 7 -5 7 C-4.67 5.68 -4.34 4.36 -4 3 C-4.99 3 -5.98 3 -7 3 C-7 2.34 -7 1.68 -7 1 C-4.50935112 0.31292445 -2.62113708 0 0 0 Z " fill="#D0D0D0" transform="translate(278,79)"/>
<path d="M0 0 C2.64 0 5.28 0 8 0 C8 0.66 8 1.32 8 2 C4.7 2.66 1.4 3.32 -2 4 C-1.34 2.68 -0.68 1.36 0 0 Z " fill="#E7E7E7" transform="translate(252,99)"/>
<path d="M0 0 C1.98 0 3.96 0 6 0 C5.67 1.32 5.34 2.64 5 4 C3.35 4.33 1.7 4.66 0 5 C0 3.35 0 1.7 0 0 Z " fill="#DADADA" transform="translate(284,113)"/>
<path d="M0 0 C0.66 0 1.32 0 2 0 C2 2.64 2 5.28 2 8 C1.34 8 0.68 8 0 8 C0 7.01 0 6.02 0 5 C-0.99 5.33 -1.98 5.66 -3 6 C-2 4 -1 2 0 0 Z " fill="#D5D5D5" transform="translate(236,44)"/>
<path d="M0 0 C0.66 0 1.32 0 2 0 C2 0.99 2 1.98 2 3 C2.99 3 3.98 3 5 3 C5 3.66 5 4.32 5 5 C2.69 5.33 0.38 5.66 -2 6 C-1.49396008 3.83125748 -1.00016187 2.00032373 0 0 Z " fill="#DBDBDB" transform="translate(267,67)"/>
<path d="M0 0 C0.66 0.33 1.32 0.66 2 1 C0.55746343 4.36591866 -1.33264727 6.51047079 -4 9 C-2.94124926 5.59687262 -1.99097846 2.98646769 0 0 Z " fill="#2D2D2D" transform="translate(18,80)"/>
<path d="M0 0 C2.475 0.495 2.475 0.495 5 1 C5 1.66 5 2.32 5 3 C2.5 4.625 2.5 4.625 0 6 C0 4.02 0 2.04 0 0 Z " fill="#C4C4C4" transform="translate(246,50)"/>
<path d="M0 0 C1.65 0 3.3 0 5 0 C4.34 1.65 3.68 3.3 3 5 C2.34 5 1.68 5 1 5 C0.67 3.35 0.34 1.7 0 0 Z " fill="#7F7F7F" transform="translate(221,40)"/>
</svg>
